<svg xmlns="http://www.w3.org/2000/svg" xmlns:xlink="http://www.w3.org/1999/xlink" viewBox="2.74 4.01 26.51 23.92">
	<path fill="#313030" transform="scale(0.0625 0.0625)" d="M312.044 64.2552C326.435 62.7934 336.27 73.1636 345.135 82.9952C374.865 73.3541 409.573 81.7657 432.98 101.95C473.737 137.096 480.644 199.451 444.987 240.499C384.374 310.276 272.803 264.65 273.245 176.688C273.264 172.807 273.573 168.875 273.296 165.003L273.261 164.548C262.014 152.008 251.845 148.099 253.291 128.382C246.497 132.39 228.203 138.61 220.551 138.351C216.929 151.278 208.295 154.562 196.774 159.77C185.27 164.971 178.988 168.351 166.194 162.03C164.029 164.534 162.513 167.826 160.918 170.712C167.408 175.645 171.289 183.461 170.953 191.666C170.609 200.063 166.6 217.856 159.669 224.223C160.351 226.198 160.644 228.24 160.918 230.303C171.045 230.688 177.628 230.752 185.686 237.904C197.711 248.576 194.784 257.453 195.678 271.849L195.705 272.259C201.303 277.853 207.325 281.447 213.581 288.245L214.867 289.711C248.828 329 243.522 389.297 204.374 422.991C167.07 455.098 111.638 454.989 75.1884 421.725C33.7568 383.915 33.5913 320.465 74.0084 282.153C77.8222 278.538 82.1281 275.804 86.0749 272.413L86.2523 272.259C85.1053 242.799 93.452 230.062 123.448 230.303C123.749 228.215 124.164 226.236 124.8 224.223C119.764 219.964 116.234 215.301 116.222 208.29C116.213 203.383 121.056 184.032 123.189 179.477C127.817 169.594 137.848 166.145 148.209 166.216C150.334 161.394 153.124 156.678 156.321 152.487C151.841 141.573 152.179 128.699 162.886 121.253C171.813 115.043 186.334 109.302 197.504 107.741C197.991 101.062 203.22 95.2833 208.984 92.2981C214.438 89.473 233.282 83.2863 238.942 83.2217C244.962 83.1531 251.23 85.6326 255.532 89.832C263.16 82.1998 272.304 81.4054 281.376 87.3922C290.736 77.2155 297.98 66.6128 312.044 64.2552ZM352.659 109.958C317.834 121.342 295.953 153.521 303.36 190.063C304.17 194.059 305.74 197.81 306.608 201.736C316.678 226.938 341.649 245.822 369.131 246.248C393.902 246.447 416.94 234.163 429.819 212.653C461.505 159.733 413.404 94.4587 352.659 109.958ZM115.105 413.231C183.877 440.674 242.105 355.327 187.056 301.234C157.112 275.743 114.215 277.34 88.3758 307.997C58.9878 342.864 73.6769 398.48 115.105 413.231ZM288.519 162.96C281.881 205.286 309.612 250.683 352.659 258.313C357.24 254.361 366.876 250.223 372.543 246.248C371.379 246.325 370.296 246.357 369.131 246.248C341.649 245.822 316.678 226.938 306.608 201.736L306.165 201.607C305.427 200.209 305.088 198.488 304.624 196.975L304.433 197.015C303.559 198.341 305.185 202.197 303.677 206.351C300.34 209.253 295.922 206.555 293.242 204.129C292.758 203.691 290.822 198.698 291.704 197.968C291.486 191.523 289.184 185.733 288.812 179.921C288.572 176.175 290.888 165.472 288.519 162.96ZM192.682 122.025C185.619 125.497 169.739 130.709 167.526 136.973C164.623 145.19 172.309 152.171 180.815 151.451C186.745 150.435 204.166 143.468 206.641 135.981C200.697 132.783 197.649 128.698 197.504 122.025C195.896 122.042 194.29 122.049 192.682 122.025ZM238.089 97.5465C233.38 97.6204 229.429 99.3908 225 100.846C218.055 103.128 212.698 103.877 210.111 111.375C212.226 112.748 214.681 114.138 216.43 115.963C219.026 118.671 218.904 123.136 222.903 124.169C227.718 124.989 243.826 119.422 248.535 114.651C246.094 110.043 244.927 105.616 247.282 100.769C244.782 98.6783 241.524 96.1078 238.089 97.5465ZM143.745 179.796C140.798 180.497 137.77 181.852 136.184 184.602C133.631 189.029 127.88 206.868 132.59 212.168C136.534 210.022 139.879 208.638 144.428 208.734C147.212 209.466 149.644 210.511 152.013 212.168C155.873 202.037 163.521 178.087 143.745 179.796ZM141.011 225.048C138.559 226.338 137.675 227.709 137.119 230.303C139.328 230.32 141.537 230.353 143.745 230.303L146.694 230.303C146.118 226.539 145.247 224.427 141.011 225.048ZM268.602 97.5465C267.105 98.1522 265.78 98.837 264.458 99.7719C264.977 101.105 265.408 102.579 266.291 103.717L266.7 103.896L267.334 103.339C269.527 101.083 275.509 97.0941 268.602 97.5465Z"/>
	<path fill="#B5B4B4" transform="scale(0.0625 0.0625)" d="M194.482 289.187C198.357 293.173 202.393 296.931 205.885 301.277C257.739 365.826 186.658 459.246 107.771 426.304C109.918 421.863 112.117 417.169 115.105 413.231C183.877 440.674 242.105 355.327 187.056 301.234C189.445 297.177 191.733 293.015 194.482 289.187Z"/>
	<path fill="#B5B4B4" transform="scale(0.0625 0.0625)" d="M341.264 98.5242L341.676 98.4679C347.729 97.6095 353.526 95.2493 359.637 94.3264C404.228 87.5914 446.506 120.224 452.944 164.553C459.685 210.974 428.138 253.475 381.615 259.895C372.4 261.167 361.59 261.016 352.659 258.313C357.24 254.361 366.876 250.223 372.543 246.248C371.379 246.325 370.296 246.357 369.131 246.248C393.902 246.447 416.94 234.163 429.819 212.653C461.505 159.733 413.404 94.4587 352.659 109.958C348.71 106.316 344.766 102.605 341.264 98.5242Z"/>
	<path fill="#EAEAE9" transform="scale(0.0625 0.0625)" d="M288.519 162.96C288.827 159.465 286.372 157.853 284.058 155.623L276.537 148.429C261.544 134.17 263.39 127.206 277.344 112.691L299.894 88.987C322.332 65.0855 323.614 86.3953 341.264 98.5242C344.766 102.605 348.71 106.316 352.659 109.958C317.834 121.342 295.953 153.521 303.36 190.063C304.17 194.059 305.74 197.81 306.608 201.736L306.165 201.607C305.427 200.209 305.088 198.488 304.624 196.975L304.433 197.015C303.559 198.341 305.185 202.197 303.677 206.351C300.34 209.253 295.922 206.555 293.242 204.129C292.758 203.691 290.822 198.698 291.704 197.968C291.486 191.523 289.184 185.733 288.812 179.921C288.572 176.175 290.888 165.472 288.519 162.96Z"/>
	<path fill="#EAEAE9" transform="scale(0.0625 0.0625)" d="M107.771 426.304C52.2429 403.644 40.2686 327.427 86.9673 289.411C89.5018 287.347 98.9365 281.559 100.002 279.434C106.291 266.895 88.177 244.383 123.164 244.471L158.544 244.476C189.081 244.452 178.924 255.889 181.892 276.72C182.782 282.971 189.867 285.858 194.482 289.187C191.733 293.015 189.445 297.177 187.056 301.234C157.112 275.743 114.215 277.34 88.3758 307.997C58.9878 342.864 73.6769 398.48 115.105 413.231C112.117 417.169 109.918 421.863 107.771 426.304Z"/>
	<path fill="#313030" transform="scale(0.0625 0.0625)" d="M115.105 413.231C73.6769 398.48 58.9878 342.864 88.3758 307.997C114.215 277.34 157.112 275.743 187.056 301.234C242.105 355.327 183.877 440.674 115.105 413.231ZM135.672 297.5C60.5154 310.59 78.3258 408.659 145.312 404.643C177.065 399.887 198.998 375.594 193.886 342.334C189.569 314.242 163.576 295.259 135.672 297.5Z"/>
	<path fill="#313030" transform="scale(0.0625 0.0625)" d="M352.659 109.958C413.404 94.4587 461.505 159.733 429.819 212.653C416.94 234.163 393.902 246.447 369.131 246.248C341.649 245.822 316.678 226.938 306.608 201.736C305.74 197.81 304.17 194.059 303.36 190.063C295.953 153.521 317.834 121.342 352.659 109.958ZM368.181 122.025C353.738 122.812 340.053 128.84 330.286 139.655C297.6 175.852 324.941 233.946 373.803 231.943C388.528 230.866 402.011 224.416 411.73 213.234C440.839 179.744 420.774 127.62 377.621 122.267C374.627 121.895 371.178 121.42 368.181 122.025Z"/>
</svg>